<svg id="Capa_1" xmlns="http://www.w3.org/2000/svg" xmlns:xlink="http://www.w3.org/1999/xlink" viewBox="0 0 367.92 367.92" style="enable-background:new 0 0 367.92 367.92"><g><g><g><path d="M367.851 6.944c-.056-.424-.12-.832-.248-1.248-.136-.456-.32-.872-.528-1.296-.112-.232-.152-.48-.288-.704-.088-.144-.232-.24-.336-.376-.264-.368-.576-.688-.904-1.016-.328-.328-.656-.632-1.032-.896-.136-.096-.224-.232-.36-.312-.224-.136-.472-.168-.704-.28-.44-.216-.872-.4-1.336-.536-.392-.104-.776-.16-1.176-.208-.472-.056-.928-.088-1.4-.064-.44.024-.864.112-1.296.216-.272.064-.552.04-.824.136l-352 120c-3.184 1.072-5.352 4.04-5.416 7.408-.064 3.368 1.984 6.416 5.136 7.624l164.456 63.192 71.064 164.512c1.272 2.936 4.168 4.824 7.344 4.824.136.0.264.0.4-.008 3.336-.168 6.208-2.384 7.224-5.56l112-352c.08-.248.056-.504.104-.76.096-.448.168-.88.184-1.336C367.931 7.808 367.907 7.384 367.851 6.944zM31.475 128.368 330.011 26.592 173.619 182.984 31.475 128.368zM246.859 337.112l-61.76-142.976L342.403 36.824 246.859 337.112z"/><path d="M125.659 242.264c-3.128-3.128-8.184-3.128-11.312.0l-112 112c-3.128 3.128-3.128 8.184.0 11.312 1.56 1.56 3.608 2.344 5.656 2.344s4.096-.784 5.656-2.344l112-112C128.787 250.448 128.787 245.392 125.659 242.264z"/><path d="M146.347 298.264l-56 56c-3.128 3.128-3.128 8.184.0 11.312 1.56 1.56 3.608 2.344 5.656 2.344 2.048.0 4.096-.784 5.656-2.344l56-56c3.128-3.128 3.128-8.184.0-11.312C154.531 295.136 149.475 295.136 146.347 298.264z"/><path d="M8.003 279.92c2.048.0 4.096-.784 5.656-2.344l56-56c3.128-3.128 3.128-8.184.0-11.312-3.128-3.128-8.184-3.128-11.312.0l-56 56c-3.128 3.128-3.128 8.184.0 11.312C3.907 279.136 5.955 279.92 8.003 279.92z"/></g></g></g><g/><g/><g/><g/><g/><g/><g/><g/><g/><g/><g/><g/><g/><g/><g/></svg>